@startuml
[*] --> Idle
Idle -down-> Initialized : Init(simulationTime?)
Initialized -down-> Running : Start(simulationSpeed?)
Initialized -up-> Idle : Reset

state Running {
    [*] --> Started
    Started --> Paused : Pause
    Paused --> Started : Start(simulationSpeed?)
    Started --> Started : Update(simulationSpeed?)
    Paused --> Paused : Update(simulationTime?)
}

note right of Running : While running, periodic Time Messages are sent

Started -left-> Stopped : Stop 
Paused -left-> Stopped : Stop
Stopped -up-> Idle : Reset
@enduml